<mxfile host="app.diagrams.net" modified="2022-06-24T06:37:50.585Z" agent="5.0 (Windows NT 10.0; Win64; x64) AppleWebKit/537.36 (KHTML, like Gecko) Chrome/102.0.0.0 Safari/537.36" etag="0WZYh03eXxi37k-hSOVd" version="20.0.3" type="github">
  <diagram id="1kG5ZC6wH0o2LiOEInN8" name="Page-1">
    <mxGraphModel dx="868" dy="482" grid="1" gridSize="10" guides="1" tooltips="1" connect="1" arrows="1" fold="1" page="1" pageScale="1" pageWidth="850" pageHeight="1100" math="0" shadow="0">
      <root>
        <mxCell id="0" />
        <mxCell id="1" parent="0" />
        <mxCell id="hpUGNsSPciAsvuPUBxnr-2" value="Healthy/Osteoporosis" style="rounded=0;whiteSpace=wrap;html=1;" vertex="1" parent="1">
          <mxGeometry x="350" y="390" width="120" height="60" as="geometry" />
        </mxCell>
        <mxCell id="hpUGNsSPciAsvuPUBxnr-11" value="" style="edgeStyle=orthogonalEdgeStyle;rounded=0;orthogonalLoop=1;jettySize=auto;html=1;" edge="1" parent="1" source="hpUGNsSPciAsvuPUBxnr-3" target="hpUGNsSPciAsvuPUBxnr-4">
          <mxGeometry relative="1" as="geometry" />
        </mxCell>
        <mxCell id="hpUGNsSPciAsvuPUBxnr-3" value="Feature Extraction" style="rounded=0;whiteSpace=wrap;html=1;" vertex="1" parent="1">
          <mxGeometry x="350" y="210" width="120" height="60" as="geometry" />
        </mxCell>
        <mxCell id="hpUGNsSPciAsvuPUBxnr-12" value="" style="edgeStyle=orthogonalEdgeStyle;rounded=0;orthogonalLoop=1;jettySize=auto;html=1;" edge="1" parent="1" source="hpUGNsSPciAsvuPUBxnr-4" target="hpUGNsSPciAsvuPUBxnr-2">
          <mxGeometry relative="1" as="geometry" />
        </mxCell>
        <mxCell id="hpUGNsSPciAsvuPUBxnr-4" value="Classification" style="rounded=0;whiteSpace=wrap;html=1;" vertex="1" parent="1">
          <mxGeometry x="350" y="300" width="120" height="60" as="geometry" />
        </mxCell>
        <mxCell id="hpUGNsSPciAsvuPUBxnr-10" value="" style="edgeStyle=orthogonalEdgeStyle;rounded=0;orthogonalLoop=1;jettySize=auto;html=1;" edge="1" parent="1" source="hpUGNsSPciAsvuPUBxnr-5">
          <mxGeometry relative="1" as="geometry">
            <mxPoint x="410" y="210" as="targetPoint" />
          </mxGeometry>
        </mxCell>
        <mxCell id="hpUGNsSPciAsvuPUBxnr-5" value="Preprocessing" style="rounded=0;whiteSpace=wrap;html=1;" vertex="1" parent="1">
          <mxGeometry x="350" y="130" width="120" height="60" as="geometry" />
        </mxCell>
        <mxCell id="hpUGNsSPciAsvuPUBxnr-7" value="" style="edgeStyle=orthogonalEdgeStyle;rounded=0;orthogonalLoop=1;jettySize=auto;html=1;" edge="1" parent="1" source="hpUGNsSPciAsvuPUBxnr-6" target="hpUGNsSPciAsvuPUBxnr-5">
          <mxGeometry relative="1" as="geometry" />
        </mxCell>
        <mxCell id="hpUGNsSPciAsvuPUBxnr-6" value="Datasets of participants" style="rounded=0;whiteSpace=wrap;html=1;" vertex="1" parent="1">
          <mxGeometry x="350" y="40" width="120" height="60" as="geometry" />
        </mxCell>
      </root>
    </mxGraphModel>
  </diagram>
</mxfile>
